<svg width="22" height="19" viewBox="0 0 22 19" fill="none" xmlns="http://www.w3.org/2000/svg">
<path d="M7.34921 9.82497C6.79692 9.82497 6.34921 9.37725 6.34921 8.82497C6.34921 8.27268 6.79692 7.82497 7.34921 7.82497V9.82497ZM20.0476 8.82497L20.6736 8.0451C20.91 8.2349 21.0476 8.52174 21.0476 8.82497C21.0476 9.12819 20.91 9.41504 20.6736 9.60484L20.0476 8.82497ZM15.6053 6.54178C15.1746 6.19608 15.1057 5.56668 15.4514 5.13597C15.7971 4.70525 16.4265 4.63634 16.8572 4.98203L15.6053 6.54178ZM16.8572 12.6679C16.4265 13.0136 15.7971 12.9447 15.4514 12.514C15.1057 12.0833 15.1746 11.4539 15.6053 11.1082L16.8572 12.6679ZM12.535 17.1016V16.1016V17.1016ZM13.4031 16.2381L14.4031 16.2381V16.2381L13.4031 16.2381ZM1 16.2381L2 16.2381V16.2381L1 16.2381ZM1.86812 0.999998V-1.90735e-06V-1.90735e-06V0.999998ZM1 1.86349L0 1.86349V1.86349H1ZM12.535 0.999998V2V2V0.999998ZM13.4031 1.86349H14.4031V1.86349H13.4031ZM12.4031 12.5959C12.4031 12.0436 12.8508 11.5959 13.4031 11.5959C13.9554 11.5959 14.4031 12.0436 14.4031 12.5959L12.4031 12.5959ZM14.4031 5.3758C14.4031 5.92809 13.9554 6.3758 13.4031 6.3758C12.8508 6.3758 12.4031 5.92809 12.4031 5.3758H14.4031ZM7.34921 7.82497H20.0476V9.82497H7.34921V7.82497ZM19.4217 9.60484L15.6053 6.54178L16.8572 4.98203L20.6736 8.0451L19.4217 9.60484ZM20.6736 9.60484L16.8572 12.6679L15.6053 11.1082L19.4217 8.0451L20.6736 9.60484ZM12.535 16.1016C12.4672 16.1016 12.4031 16.1577 12.4031 16.2381L14.4031 16.2381C14.4031 17.2723 13.5617 18.1016 12.535 18.1016V16.1016ZM1.86812 16.1016L12.535 16.1016V18.1016L1.86812 18.1016L1.86812 16.1016ZM2 16.2381C2 16.1577 1.93591 16.1016 1.86812 16.1016L1.86812 18.1016C0.841432 18.1016 2.20537e-06 17.2723 2.14577e-06 16.2381L2 16.2381ZM1.86812 2C1.93591 2 2 1.94391 2 1.86349H0C0 0.82929 0.841423 -1.90735e-06 1.86812 -1.90735e-06L1.86812 2ZM12.535 2H1.86812V-1.90735e-06H12.535V2ZM12.4031 1.86349C12.4031 1.94391 12.4672 2 12.535 2V-1.90735e-06C13.5617 -1.90735e-06 14.4031 0.829287 14.4031 1.86349H12.4031ZM2 1.86349L2 16.2381L2.14577e-06 16.2381L0 1.86349L2 1.86349ZM12.4031 16.2381L12.4031 12.5959L14.4031 12.5959L14.4031 16.2381L12.4031 16.2381ZM12.4031 5.3758V1.86349H14.4031V5.3758H12.4031Z" fill="#2260FF"/>
</svg>
