<svg width="21" height="26" viewBox="0 0 21 26" fill="none" xmlns="http://www.w3.org/2000/svg">
<path d="M16.9938 19.4668C16.5161 19.7439 16.3535 20.3559 16.6307 20.8336C16.9079 21.3113 17.5199 21.4738 17.9976 21.1966L16.9938 19.4668ZM20.502 19.7433C20.9796 19.4661 21.1422 18.8542 20.865 18.3765C20.5878 17.8988 19.9758 17.7363 19.4982 18.0135L20.502 19.7433ZM14.7354 15.5353C14.2577 15.8125 14.0952 16.4244 14.3724 16.9021C14.6496 17.3798 15.2615 17.5423 15.7392 17.2651L14.7354 15.5353ZM18.2436 15.8119C18.7213 15.5347 18.8838 14.9227 18.6066 14.445C18.3294 13.9673 17.7175 13.8048 17.2398 14.082L18.2436 15.8119ZM18.0877 22.1539L17.2206 22.652L18.0877 22.1539ZM14.818 24.0513L15.6851 23.5532V23.5532L14.818 24.0513ZM17.3967 24.7457L17.8986 25.6107L17.3967 24.7457ZM11.9594 4.68412C13.4363 7.25522 12.5578 10.5406 10.0051 12.0219L11.0089 13.7518C14.5182 11.7154 15.7167 7.20973 13.6937 3.68792L11.9594 4.68412ZM10.0051 12.0219C7.45525 13.5015 4.19249 12.6255 2.71727 10.0574L0.983027 11.0536C3.00775 14.5783 7.49656 15.7899 11.0089 13.7518L10.0051 12.0219ZM2.71727 10.0574C1.24035 7.48625 2.11884 4.20092 4.67163 2.71957L3.66783 0.989725C0.158527 3.02612 -1.04001 7.53175 0.983027 11.0536L2.71727 10.0574ZM4.67163 2.71957C7.22143 1.23996 10.4842 2.11597 11.9594 4.68412L13.6937 3.68792C11.6689 0.163174 7.18012 -1.0484 3.66783 0.989725L4.67163 2.71957ZM17.9976 21.1966L20.502 19.7433L19.4982 18.0135L16.9938 19.4668L17.9976 21.1966ZM15.7392 17.2651L18.2436 15.8119L17.2398 14.082L14.7354 15.5353L15.7392 17.2651ZM11.2736 12.2992L17.2206 22.652L18.9548 21.6558L13.0078 11.303L11.2736 12.2992ZM15.6851 23.5532L9.73814 13.2003L8.00391 14.1965L13.9509 24.5494L15.6851 23.5532ZM16.8948 23.8808C16.4732 24.1255 15.9317 23.9823 15.6851 23.5532L13.9509 24.5494C14.7469 25.9351 16.5145 26.4139 17.8986 25.6107L16.8948 23.8808ZM17.2206 22.652C17.4688 23.0842 17.3195 23.6344 16.8948 23.8808L17.8986 25.6107C19.2798 24.8092 19.7492 23.0387 18.9548 21.6558L17.2206 22.652ZM6.86613 5.9301C6.97684 6.12284 6.90912 6.36697 6.72266 6.47517L7.72646 8.20502C8.86943 7.54177 9.2572 6.07734 8.60037 4.9339L6.86613 5.9301ZM6.72266 6.47517C6.53919 6.58163 6.30225 6.52052 6.19323 6.33072L4.45899 7.32692C5.11751 8.47331 6.5805 8.87 7.72646 8.20502L6.72266 6.47517ZM6.19323 6.33072C6.08251 6.13798 6.15024 5.89385 6.3367 5.78565L5.3329 4.0558C4.18993 4.71905 3.80216 6.18348 4.45899 7.32692L6.19323 6.33072ZM6.3367 5.78565C6.52017 5.67919 6.7571 5.7403 6.86613 5.9301L8.60037 4.9339C7.94185 3.78751 6.47886 3.39082 5.3329 4.0558L6.3367 5.78565Z" fill="#2260FF"/>
</svg>
