<svg width="24" height="22" viewBox="0 0 24 22" fill="none" xmlns="http://www.w3.org/2000/svg">
<path d="M3.75526 4.40948C2.48504 4.41047 1.00224 3.9157 1 2.67589C0.997881 1.49807 2.37305 1.00107 3.74911 1L16.2806 1C17.557 1 18.0357 1.68642 18.0357 2.39678V4.40948M21.9517 9.36873H17.3773C15.4759 9.36873 13.9345 10.8258 13.9345 12.6232C13.9345 14.4206 15.4759 15.8777 17.3773 15.8777H21.9517M17.2195 12.7782H17.3773M1 2.85972V18.5123C1 19.3602 1.69692 20.0476 2.55662 20.0476H21.3481C22.2078 20.0476 22.9048 19.3602 22.9048 18.5123V5.94476C22.9048 5.09685 22.2078 4.40948 21.3481 4.40948H3.73296" stroke="#2260FF" stroke-width="2" stroke-linecap="round"/>
</svg>
